# xmcd
#
# Track frame offsets: 
#        150
#        15275
#        32347
#        44040
#        57880
#        71797
#        84675
#        98125
#        111122
#        127020
#        145000
#        164307
#        179457
#        192665
#
# Disc length: 2779 seconds
#
# Revision: 4
# Processed by: cddbd v1.4PL0 Copyright (c) Steve Scherf et al.
# Submitted via: ExactAudioCopy v0.90a11
#
DISCID=c20ad90e
DTITLE=Studio 99 - Sweet
DYEAR=1900
DGENRE=Blues
TTITLE0=Action
TTITLE1=Ballroom Blitz
TTITLE2=Funny Funny
TTITLE3=Little Willy
TTITLE4=Blockbuster
TTITLE5=Wig Wam Bam
TTITLE6=Poppa Joe
TTITLE7=Co-Co
TTITLE8=Fox On The Run
TTITLE9=Love Is Like Oxygen
TTITLE10=The Six Teens
TTITLE11=Hell Raiser
TTITLE12=Alexander Graham Bell
TTITLE13=Teenage Rampage
EXTD=ID3G:   0
EXTT0=
EXTT1=
EXTT2=
EXTT3=
EXTT4=
EXTT5=
EXTT6=
EXTT7=
EXTT8=
EXTT9=
EXTT10=
EXTT11=
EXTT12=
EXTT13=
PLAYORDER=
